<svg xmlns="http://www.w3.org/2000/svg" height="40" width="40">
  <g fill="#F9AA33">
    <path d="M35.499289345774166,1.444265148349404 c-1.659021150603976,-1.659021150603976 -4.345504263797913,-1.659021150603976 -5.9950991578643675,0 l-16.8164416629403,16.8164416629403 c-0.1131150784502711,0.1131150784502711 -0.19795138728797443,0.25450892651311 -0.24508266997558756,0.41475528765099406 l-2.2151702863178087,7.984039287281635 c-0.09426256537522594,0.32991897881329074 0,0.6786904707016265 0.24508266997558756,0.9143468841396911 c0.24508266997558756,0.23565641343806493 0.5938541618639231,0.32991897881329074 0.9143468841396911,0.24508266997558756 l7.984039287281635,-2.2151702863178087 c0.1602463611378841,-0.04713128268761297 0.30164020920072304,-0.12254133498779375 0.41475528765099406,-0.24508266997558756 l16.8164416629403,-16.8164416629403 c1.6495948940664533,-1.659021150603976 1.6495948940664533,-4.345504263797913 0,-5.9950991578643675 zm-20.76604315216227,17.429148337879266 l13.762334544782982,-13.762334544782982 l4.43976682917314,4.43976682917314 l-13.762334544782982,13.762334544782982 zm-0.8860681145271236,1.7815624855917698 l3.5442724581084946,3.5442724581084946 l-4.901653399511747,1.357380941403253 zm21.42588110978885,-13.43241556596969 l-0.9991831929773944,0.9991831929773944 l-4.43976682917314,-4.43976682917314 l0.9991831929773944,-0.9991831929773944 c0.9237731406772138,-0.9237731406772138 2.413121673605783,-0.9237731406772138 3.336894814282997,0 l1.102872014890143,1.102872014890143 c0.9143468841396911,0.9237731406772138 0.9143468841396911,2.413121673605783 0,3.336894814282997 zm0,0 " id="svg_2"/>
    <path d="M34.93371395352282,23.841050681503074 c-0.5184441095637426,0 -0.9426256537522592,0.42418154418851667 -0.9426256537522592,0.9426256537522592 v8.37051580532006 c0,1.5647585852287498 -1.2631183760280271,2.827876961256777 -2.827876961256777,2.827876961256777 h-26.45007584428839 c-1.5647585852287498,0 -2.827876961256777,-1.2631183760280271 -2.827876961256777,-2.827876961256777 v-24.56482453678387 c0,-1.5647585852287498 1.2631183760280271,-2.827876961256777 2.827876961256777,-2.827876961256777 h8.37051580532006 c0.5184441095637426,0 0.9426256537522592,-0.42418154418851667 0.9426256537522592,-0.9426256537522592 c0,-0.5184441095637426 -0.42418154418851667,-0.9426256537522592 -0.9426256537522592,-0.9426256537522592 h-8.37051580532006 c-2.601646804356235,0 -4.713128268761294,2.1114814644050597 -4.713128268761294,4.713128268761294 v24.56482453678387 c0,2.601646804356235 2.1114814644050597,4.713128268761294 4.713128268761294,4.713128268761294 h26.45007584428839 c2.601646804356235,0 4.713128268761294,-2.1114814644050597 4.713128268761294,-4.713128268761294 v-8.37051580532006 c0,-0.5184441095637426 -0.42418154418851667,-0.9426256537522592 -0.9426256537522592,-0.9426256537522592 zm0,0 " id="svg_3"/>
  </g>
</svg>