<?xml version="1.0" ?>
<!DOCTYPE svg  PUBLIC '-//W3C//DTD SVG 1.1//EN'  'http://www.w3.org/Graphics/SVG/1.1/DTD/svg11.dtd'>
<svg
  enable-background="new 0 0 128 128" id="Слой_1" version="1.1" viewBox="0 0 128 128" xml:space="preserve" xmlns="http://www.w3.org/2000/svg"
  xmlns:xlink="http://www.w3.org/1999/xlink">
  <path d="M114,124H14c-5.5,0-10-4.5-10-10V14C4,8.5,8.5,4,14,4h100c5.5,0,10,4.5,10,10v100  C124,119.5,119.5,124,114,124z"
    fill="transparent" />
  <path d="M14,114V14c0-5.5,4.5-10,10-10H14C8.5,4,4,8.5,4,14v100c0,5.5,4.5,10,10,10h10C18.5,124,14,119.5,14,114z" fill="#fca5f1" />
  <path d="M104,89H24c-5.5,0-10-4.5-10-10V24c0-5.5,4.5-10,10-10h80c5.5,0,10,4.5,10,10v55C114,84.5,109.5,89,104,89z"
    fill="transparent" />
  <polyline fill="#fca5f1" points="62.3,88.8 40,61.5 19.6,87 " />
  <polyline fill="#fca5f1" points="109,87.6 80,47.5 51,89 " />
  <circle cx="56.1" cy="42.2" fill="#fca5f1" r="7.5" />
  <path d="M14,125.5h100c6.3,0,11.5-5.2,11.5-11.5V14c0-6.3-5.2-11.5-11.5-11.5H14C7.7,2.5,2.5,7.7,2.5,14v100  C2.5,120.3,7.7,125.5,14,125.5z M5.5,14c0-4.7,3.8-8.5,8.5-8.5h100c4.7,0,8.5,3.8,8.5,8.5v100c0,4.7-3.8,8.5-8.5,8.5H14  c-4.7,0-8.5-3.8-8.5-8.5V14z"
    fill="#6f59ae" />
  <path d="M56.1,51.2c5,0,9-4,9-9s-4-9-9-9s-9,4-9,9S51.2,51.2,56.1,51.2z M56.1,36.2c3.3,0,6,2.7,6,6s-2.7,6-6,6  s-6-2.7-6-6S52.8,36.2,56.1,36.2z"
    fill="#6f59ae" />
  <path d="M24,90.5h80c2.1,0,4.1-0.6,5.8-1.6c0,0,0,0,0.1,0c0,0,0,0,0,0c3.3-2,5.6-5.7,5.6-9.9V24  c0-6.3-5.2-11.5-11.5-11.5H24c-6.3,0-11.5,5.2-11.5,11.5v55C12.5,85.3,17.7,90.5,24,90.5z M21.4,87.1L40,63.9l13.8,17.3  c0.1,0.2,0.3,0.3,0.5,0.4l-4.1,5.9H24C23.1,87.5,22.2,87.4,21.4,87.1z M53.9,87.5L80,50.1l26.7,37c-0.9,0.3-1.8,0.5-2.7,0.5H53.9z   M15.5,24c0-4.7,3.8-8.5,8.5-8.5h80c4.7,0,8.5,3.8,8.5,8.5v55c0,2.6-1.2,5-3.1,6.6l-28.2-39C80.9,46.2,80.5,46,80,46c0,0,0,0,0,0  c-0.5,0-0.9,0.2-1.2,0.6L56,79.2L41.2,60.6c-0.6-0.7-1.8-0.7-2.3,0L18.7,85.7c-2-1.6-3.2-4-3.2-6.7V24z"
    fill="#6f59ae" />
</svg>
