<?xml version="1.0" encoding="iso-8859-1"?>
<!DOCTYPE svg PUBLIC "-//W3C//DTD SVG 1.1//EN" "http://www.w3.org/Graphics/SVG/1.1/DTD/svg11.dtd">
<!-- <svg version="1.1" id="Capa_1" xmlns="http://www.w3.org/2000/svg" xmlns:xlink="http://www.w3.org/1999/xlink" x="0px" y="0px" width="407.5px" height="407.5px" viewBox="0 0 407.504 407.504" style="enable-background: new 0 0 407.504 407.504" xml:space="preserve">
  <path fill="white" d="M 376.3 45.6 c -21.1 -23.7 -50.2 -36.7 -81.9 -36.7 c -24.8 0 -51.5 14.7 -71 25.5 c -7.1 3.9 -16.8 9.3 -19.7 9.6 c -2.9 -0.3 -12.5 -5.7 -19.6 -9.6 C 164.7 23.7 138 8.9 113.1 8.9 c -31.7 0 -60.8 13 -81.9 36.7 C 11.1 68.1 0 97.7 0 129 c 0 44.7 16.1 108.3 42.9 170 c 12 27.5 24.7 51.2 36.8 68.7 c 14.4 20.8 26.8 30.9 37.9 30.9 c 4.9 0 13.9 -2.1 18.9 -16 c 4.9 -13.5 9.3 -29.1 14 -45.5 c 12.4 -43.6 27.7 -97.9 52.5 -97.9 h 1.6 c 11 0 20.9 9.4 30.1 28.8 c 9.2 19.2 16.1 44.8 22.9 69.5 c 4.5 16.4 8.7 31.8 13.4 45.1 c 4.9 13.8 13.8 15.9 18.7 15.9 c 11 0 23.4 -10.2 37.8 -31.3 c 12.1 -17.6 24.9 -41.6 36.9 -69.4 c 27 -62.3 43.2 -125.4 43.2 -168.8 C 407.5 97.7 396.4 68.1 376.3 45.6 M 286.8 77.7 c -0.3 0 -25.8 -1.2 -49.1 -7.4 c -10.5 -2.8 -22.9 -8.4 -22.9 -10 c 0 -1.6 13.5 -9.5 16.7 -11.3 c 17.9 -9.9 42.5 -23.4 63 -23.4 c 60.4 0 96.4 52.6 96.4 103.5 c 0 40.6 -16 102.7 -41.8 162.1 c -11.5 26.4 -24 50 -35.4 66.6 c -13.1 19.1 -21.5 24.6 -24.1 24.1 c -1.6 -0.3 -1.8 -1.4 -3 -4.9 c -4.5 -12.7 -8.7 -27.9 -13 -43.9 c -6.9 -25.4 -14.1 -51.7 -23.9 -72.3 c -12.3 -25.8 -27.1 -38.3 -45.1 -38.3 h -1.6 c -17.4 0 -31.8 12.4 -44.1 38 c -9.8 20.4 -17.2 46.6 -24.4 72 c -4.6 16.2 -8.9 31.4 -13.6 44.4 c -1 2.9 -1.4 4.7 -3.3 5 c -1.5 0.2 -7.9 -0.3 -24.2 -23.7 c -11.3 -16.3 -23.9 -39.7 -35.2 -65.8 C 32.6 233.5 16.6 170.9 16.6 129 c 0 -50.9 36.1 -103.5 96.4 -103.5 c 15.7 0 36.3 7.1 55.2 19.1 c 2.8 1.8 6.7 4.7 10.4 7.6 c 1.5 1.2 3 2.3 4.4 3.3 c 4.4 3.3 10.4 7.6 17.4 11.8 c 3 1.8 6.7 4 10.7 5.6 c 15.1 6.4 31.1 9.7 47.6 9.7 c 16.8 0 28.1 -3 28.2 -3 c 0 0 2.5 -0.7 2.4 -1.3 C 289.2 77.7 286.8 77.7 286.8 77.7 z" />
</svg> -->
<svg xmlns="http://www.w3.org/2000/svg" xmlns:xlink="http://www.w3.org/1999/xlink" version="1.1" x="0px" y="0px" viewBox="0 0 184.663 184.663" style="enable-background:new 0 0 184.663 184.663;" xml:space="preserve">
  <path fill="#fff" d="M160.715,13.132C144.675-1.53,126.518-1.51,112.946,1.78c-13.521,3.277-27.708,3.277-41.229,0  C58.145-1.51,39.988-1.53,23.947,13.132c-30.393,27.781-5.936,77.407,1.425,85.955c7.361,8.548,7.598,19.945,12.822,43.215  c5.224,23.27,11.872,45.352,25.169,42.028c13.297-3.324,16.859-19.47,20.183-41.078c0.229-1.486,0.467-2.88,0.713-4.19  c1.69-8.984,14.454-8.984,16.144,0c0.246,1.309,0.485,2.704,0.714,4.19c3.324,21.608,6.886,37.754,20.183,41.078  c13.297,3.324,19.945-18.758,25.169-42.028c5.224-23.27,5.461-34.667,12.822-43.215C166.652,90.539,191.109,40.913,160.715,13.132z   M67.883,23.925c-0.368,2.73-2.875,4.648-5.603,4.292c-0.977-0.121-22.653-2.514-28.743,21.15c-0.581,2.256-2.612,3.755-4.839,3.755  c-0.413,0-0.832-0.051-1.25-0.159c-2.674-0.688-4.284-3.414-3.596-6.088c6.673-25.93,28.913-30.025,39.741-28.572  C66.33,18.671,68.25,21.188,67.883,23.925z"/>
</svg>
